<svg width="15" height="19" viewBox="0 0 15 19" fill="none" xmlns="http://www.w3.org/2000/svg">
<path d="M9.92156 2.88627H1.26274C0.927959 2.88665 0.606993 3.01981 0.370264 3.25654C0.133534 3.49327 0.000375284 3.81423 0 4.14902V17.8588C3.41224e-06 17.9582 0.0274032 18.0558 0.0791913 18.1406C0.130979 18.2255 0.205153 18.2945 0.293571 18.34C0.381989 18.3855 0.481233 18.4058 0.580407 18.3985C0.679581 18.3913 0.774852 18.3569 0.855761 18.2991L5.59154 14.916L10.3286 18.2992C10.4095 18.357 10.5048 18.3914 10.604 18.3986C10.7031 18.4058 10.8024 18.3855 10.8908 18.34C10.9792 18.2945 11.0533 18.2255 11.1051 18.1406C11.1569 18.0558 11.1843 17.9582 11.1843 17.8588V4.14902C11.1839 3.81423 11.0508 3.49327 10.814 3.25654C10.5773 3.01981 10.2563 2.88665 9.92156 2.88627ZM10.102 16.8073L5.90599 13.8106C5.8142 13.745 5.70423 13.7098 5.59143 13.7098C5.47864 13.7098 5.36868 13.7451 5.27691 13.8107L1.08235 16.8071V4.14902C1.08241 4.10119 1.10144 4.05535 1.13526 4.02153C1.16907 3.98771 1.21492 3.96869 1.26274 3.96863H9.92156C9.96939 3.96869 10.0152 3.98771 10.0491 4.02153C10.0829 4.05535 10.1019 4.10119 10.102 4.14902V16.8073ZM14.0706 1.26274V14.9725C14.0706 15.1161 14.0136 15.2537 13.9121 15.3552C13.8106 15.4567 13.6729 15.5137 13.5294 15.5137C13.3859 15.5137 13.2482 15.4567 13.1467 15.3552C13.0452 15.2537 12.9882 15.1161 12.9882 14.9725V1.26274C12.9882 1.21492 12.9691 1.16907 12.9353 1.13526C12.9015 1.10144 12.8557 1.08241 12.8078 1.08235H3.42745C3.28392 1.08235 3.14627 1.02534 3.04478 0.923846C2.94329 0.822355 2.88627 0.684705 2.88627 0.541176C2.88627 0.397647 2.94329 0.259997 3.04478 0.158507C3.14627 0.0570165 3.28392 0 3.42745 0H12.8078C13.1426 0.000375284 13.4636 0.133535 13.7003 0.370264C13.937 0.606993 14.0702 0.927959 14.0706 1.26274Z" fill="white"/>
</svg>
