<svg width="20" height="19" viewBox="0 0 20 19" fill="none" xmlns="http://www.w3.org/2000/svg">
<path d="M14.6925 18.4C14.458 18.3998 14.2284 18.3327 14.0306 18.2068L9.65279 15.4332C9.6217 15.4132 9.58555 15.4026 9.54862 15.4026C9.51169 15.4026 9.47553 15.4132 9.44444 15.4332L5.3761 18.0107C5.144 18.1617 4.8712 18.238 4.59442 18.2293C4.31764 18.2206 4.05018 18.1273 3.82802 17.962C3.59618 17.7939 3.42046 17.5598 3.32388 17.2903C3.22729 17.0207 3.21434 16.7283 3.28671 16.4512L4.4597 11.8369C4.47119 11.7937 4.47028 11.7481 4.45708 11.7053C4.44387 11.6626 4.4189 11.6244 4.38502 11.5951L0.459264 8.32766C0.26231 8.16392 0.119318 7.94459 0.0489683 7.69831C-0.0213814 7.45203 -0.0158184 7.19026 0.0649306 6.9472C0.14072 6.70798 0.286896 6.49717 0.484365 6.34233C0.681834 6.18748 0.921413 6.09579 1.17181 6.07924L6.29861 5.74651C6.33835 5.74313 6.37629 5.72845 6.40796 5.7042C6.43962 5.67995 6.46368 5.64714 6.4773 5.60966L8.38953 0.794505C8.47999 0.560576 8.63912 0.359494 8.84599 0.21769C9.05287 0.0758863 9.29781 -2.25384e-06 9.54862 0C9.79943 2.25394e-06 10.0444 0.0758951 10.2512 0.217703C10.4581 0.35951 10.6172 0.560596 10.7077 0.794526L12.6198 5.60957C12.6335 5.64708 12.6575 5.6799 12.6892 5.70416C12.7209 5.72843 12.7589 5.74312 12.7986 5.74651L17.9254 6.07924C18.1758 6.0958 18.4154 6.18748 18.6129 6.34233C18.8103 6.49718 18.9565 6.70798 19.0323 6.9472C19.113 7.19026 19.1186 7.45201 19.0483 7.69829C18.9779 7.94456 18.835 8.1639 18.638 8.32765L14.7122 11.5951C14.6783 11.6244 14.6534 11.6626 14.6401 11.7053C14.6269 11.7481 14.626 11.7937 14.6375 11.837L15.9024 16.8125C15.9671 17.0602 15.9554 17.3217 15.869 17.5627C15.7826 17.8037 15.6255 18.0129 15.4181 18.1631C15.2074 18.3168 14.9534 18.3997 14.6925 18.4ZM9.54862 14.3623C9.78279 14.362 10.0122 14.4282 10.2102 14.5533L14.588 17.3269C14.6204 17.3494 14.6591 17.3609 14.6985 17.3597C14.7379 17.3584 14.7758 17.3445 14.8066 17.3199C14.8455 17.2925 14.8748 17.2535 14.8903 17.2085C14.9057 17.1635 14.9066 17.1147 14.8928 17.0692L13.628 12.0936C13.5686 11.8596 13.5764 11.6137 13.6503 11.384C13.7242 11.1542 13.8613 10.9499 14.046 10.7945L17.9717 7.52707C18.0086 7.4967 18.0352 7.45561 18.0478 7.40948C18.0603 7.36335 18.0582 7.31447 18.0418 7.26957C18.0309 7.22831 18.0072 7.19153 17.9742 7.16445C17.9412 7.13736 17.9006 7.12134 17.8579 7.11866L12.7311 6.78593C12.4949 6.76893 12.2683 6.68558 12.0773 6.54547C11.8864 6.40536 11.7388 6.21418 11.6517 5.99393L9.73968 1.17894C9.72623 1.13892 9.70055 1.10414 9.66627 1.0795C9.63199 1.05485 9.59084 1.0416 9.54862 1.04159C9.50641 1.04159 9.46525 1.05485 9.43097 1.07948C9.39669 1.10412 9.37101 1.1389 9.35755 1.17892L7.44541 5.99401C7.35832 6.21424 7.21081 6.40541 7.01987 6.54551C6.82893 6.6856 6.6023 6.76894 6.36609 6.78593L1.23928 7.11866C1.19668 7.12134 1.156 7.13736 1.123 7.16445C1.09001 7.19153 1.06636 7.22831 1.05542 7.26957C1.039 7.31448 1.03693 7.36337 1.0495 7.40951C1.06208 7.45564 1.08867 7.49672 1.12561 7.52708L5.05128 10.7945C5.2359 10.95 5.37303 11.1542 5.44695 11.384C5.52087 11.6137 5.5286 11.8596 5.46926 12.0935L4.29627 16.7079C4.27485 16.7828 4.27712 16.8625 4.30277 16.936C4.32841 17.0096 4.37618 17.0734 4.43953 17.1188C4.49357 17.1601 4.55918 17.1835 4.62717 17.1856C4.69517 17.1878 4.76213 17.1686 4.81868 17.1308L8.88702 14.5533C9.08501 14.4282 9.31444 14.362 9.54862 14.3623Z" fill="white"/>
</svg>
