<svg width="20" height="19" viewBox="0 0 20 19" fill="none" xmlns="http://www.w3.org/2000/svg">
<path d="M18.9018 8.47454L14.9801 11.6819L16.225 16.6296C16.2981 16.906 16.2846 17.1977 16.1862 17.4664C16.0878 17.7352 15.9092 17.9685 15.6736 18.1358C15.4461 18.2989 15.1737 18.3908 14.8921 18.3993C14.6105 18.4079 14.3329 18.3327 14.0955 18.1837L9.72263 15.4616C9.71043 15.4549 9.70502 15.4576 9.6996 15.4616L5.63562 17.9913C5.37376 18.1551 5.06781 18.2376 4.75758 18.2281C4.44736 18.2186 4.14722 18.1175 3.89624 17.9381C3.63628 17.7534 3.43914 17.4958 3.33061 17.1992C3.22209 16.9026 3.20723 16.5806 3.288 16.2755L4.45978 11.7464L0.52043 8.47454C0.297281 8.29183 0.135292 8.04732 0.0555579 7.77286C-0.0241765 7.4984 -0.0179619 7.20671 0.0733925 6.93577C0.15999 6.66863 0.326521 6.43333 0.551258 6.26058C0.775995 6.08784 1.0485 5.98566 1.33323 5.96739L6.45384 5.6406L8.39235 0.887189C8.49548 0.62628 8.67632 0.40202 8.91125 0.243733C9.14617 0.0854465 9.42423 0.000499574 9.70908 0H9.71043C9.99572 4.77582e-05 10.2743 0.0847785 10.5098 0.243089C10.7452 0.4014 10.9265 0.625906 11.0299 0.887189L12.9399 5.61331L18.089 5.96739C18.3737 5.98566 18.6462 6.08784 18.871 6.26059C19.0957 6.43333 19.2622 6.66863 19.3488 6.93577C19.4402 7.20671 19.4464 7.4984 19.3667 7.77286C19.2869 8.04732 19.1249 8.29182 18.9018 8.47454Z" fill="white"/>
</svg>
